<svg width="22" height="18" viewBox="0 0 22 18" fill="none" xmlns="http://www.w3.org/2000/svg">
<path d="M17.6367 17.274H4.36322C3.29593 17.274 2.43158 16.4097 2.43158 15.3423V13.8542L11 13L19.5833 13.8542V15.3348C19.5758 16.4097 18.7039 17.274 17.6367 17.274Z" fill="#E19747"/>
<path d="M13.4502 0.25H8.55717C5.10726 0.25 2.31878 3.046 2.31878 6.48835V7.48052H19.696V6.48835C19.6885 3.046 16.8925 0.25 13.4502 0.25Z" fill="#F3AD61"/>
<path d="M13.4052 2.08393C13.4052 2.40356 13.146 2.66267 12.8265 2.66267C12.5068 2.66267 12.2477 2.40356 12.2477 2.08393C12.2477 1.7643 12.5068 1.50519 12.8265 1.50519C13.146 1.50519 13.4052 1.7643 13.4052 2.08393ZM9.1736 2.66267C9.49325 2.66267 9.75237 2.40356 9.75237 2.08394C9.75237 1.76431 9.49325 1.5052 9.1736 1.5052C8.85402 1.5052 8.5949 1.76431 8.5949 2.08394C8.5949 2.40356 8.85402 2.66267 9.1736 2.66267ZM15.4195 3.70735C15.4195 4.027 15.1604 4.28613 14.8407 4.28613C14.5212 4.28613 14.262 4.027 14.262 3.70735C14.262 3.38778 14.5212 3.12865 14.8407 3.12865C15.1604 3.12865 15.4195 3.38778 15.4195 3.70735ZM7.15932 4.28613C7.4789 4.28613 7.73802 4.027 7.73802 3.70743C7.73802 3.38778 7.4789 3.12865 7.15932 3.12865C6.83967 3.12865 6.58055 3.38778 6.58055 3.70743C6.58055 4.027 6.83967 4.28613 7.15932 4.28613ZM11 4.94755C11.3196 4.94755 11.5788 4.68843 11.5788 4.36878C11.5788 4.0492 11.3196 3.79008 11 3.79008C10.6804 3.79008 10.4213 4.0492 10.4213 4.36878C10.4213 4.68843 10.6804 4.94755 11 4.94755Z" fill="#FFF3D7"/>
<path d="M19.5758 7.30765H2.42407V9.71275L10.9856 11.1686L19.5758 9.71275V7.30765Z" fill="#F8312F"/>
<path d="M3.37913 6.3814C4.03299 6.03288 4.80944 5.62345 6.24976 5.62345C7.69047 5.62345 8.4653 6.0331 9.11817 6.38177L9.13212 6.3892C9.6608 6.6715 10.0767 6.89365 11.0074 6.89365C11.9382 6.89365 12.3541 6.6715 12.8828 6.3892L12.8967 6.38177C13.5496 6.0331 14.3244 5.62345 15.7651 5.62345C17.2059 5.62345 17.9807 6.0331 18.6332 6.38207L18.648 6.39003C19.176 6.6724 19.5896 6.89365 20.5153 6.89365C21.0927 6.89365 21.5607 7.36165 21.5607 7.939C21.5607 8.51635 21.0927 8.98435 20.5153 8.98435C19.0746 8.98435 18.2997 8.57462 17.6472 8.22565L17.6324 8.2177C17.1045 7.9354 16.6908 7.71415 15.7651 7.71415C14.84 7.71415 14.4262 7.9351 13.8973 8.21755L13.8815 8.22603C13.2274 8.57523 12.4512 8.98435 11.0074 8.98435C9.56375 8.98435 8.7875 8.57523 8.13342 8.22603L8.11752 8.21755C7.5887 7.9351 7.17492 7.71415 6.24976 7.71415C5.32332 7.71415 4.90758 7.93578 4.37705 8.21868L4.36269 8.22632C3.70883 8.57492 2.93237 8.98435 1.49207 8.98435C0.914731 8.98435 0.446716 8.51635 0.446716 7.939C0.446716 7.36165 0.914731 6.89365 1.49207 6.89365C2.4185 6.89365 2.83424 6.67195 3.36476 6.38905L3.37913 6.3814Z" fill="#44911B"/>
<path d="M19.7562 13.8542H2.24373C1.28167 13.8542 0.499996 13.0724 0.499996 12.1104C0.499996 11.1483 1.28167 10.3667 2.24373 10.3667H19.7562C20.7183 10.3667 21.5 11.1483 21.5 12.1104C21.5 13.0724 20.7183 13.8542 19.7562 13.8542Z" fill="#6D4534"/>
<path d="M19.5758 9.71275H2.42407V10.3667L7.88825 11.5918C9.93267 12.0503 12.0597 12.0503 14.1041 11.5918L19.5683 10.3667V9.71275L19.5758 9.71275Z" fill="#FCD53F"/>
</svg>
