<svg width="370" height="65" viewBox="0 0 370 65" fill="none" xmlns="http://www.w3.org/2000/svg">
<path d="M353.673 50.6818C350.082 50.6818 346.991 49.9545 344.4 48.5C341.824 47.0303 339.839 44.9545 338.445 42.2727C337.051 39.5758 336.355 36.3864 336.355 32.7045C336.355 29.1136 337.051 25.9621 338.445 23.25C339.839 20.5379 341.802 18.4242 344.332 16.9091C346.877 15.3939 349.862 14.6364 353.286 14.6364C355.589 14.6364 357.733 15.0076 359.718 15.75C361.718 16.4773 363.461 17.5758 364.945 19.0455C366.445 20.5152 367.612 22.3636 368.445 24.5909C369.279 26.803 369.695 29.3939 369.695 32.3636V35.0227H340.218V29.0227H360.582C360.582 27.6288 360.279 26.3939 359.673 25.3182C359.067 24.2424 358.226 23.4015 357.15 22.7955C356.089 22.1742 354.855 21.8636 353.445 21.8636C351.976 21.8636 350.673 22.2045 349.536 22.8864C348.415 23.553 347.536 24.4545 346.9 25.5909C346.264 26.7121 345.938 27.9621 345.923 29.3409V35.0455C345.923 36.7727 346.241 38.2652 346.877 39.5227C347.529 40.7803 348.445 41.75 349.627 42.4318C350.809 43.1136 352.211 43.4545 353.832 43.4545C354.908 43.4545 355.892 43.303 356.786 43C357.68 42.697 358.445 42.2424 359.082 41.6364C359.718 41.0303 360.203 40.2879 360.536 39.4091L369.491 40C369.036 42.1515 368.105 44.0303 366.695 45.6364C365.301 47.2273 363.498 48.4697 361.286 49.3636C359.089 50.2424 356.552 50.6818 353.673 50.6818Z" fill="white"/>
<path d="M306.993 29.8182V50H297.311V15.0909H306.538V21.25H306.948C307.72 19.2197 309.016 17.6136 310.834 16.4318C312.652 15.2348 314.857 14.6364 317.448 14.6364C319.872 14.6364 321.985 15.1667 323.788 16.2273C325.591 17.2879 326.993 18.803 327.993 20.7727C328.993 22.7273 329.493 25.0606 329.493 27.7727V50H319.811V29.5C319.826 27.3636 319.281 25.697 318.175 24.5C317.069 23.2879 315.546 22.6818 313.607 22.6818C312.304 22.6818 311.152 22.9621 310.152 23.5227C309.167 24.0833 308.394 24.9015 307.834 25.9773C307.288 27.0379 307.008 28.3182 306.993 29.8182Z" fill="white"/>
<path d="M279.234 50V15.0909H288.915V50H279.234ZM284.097 10.5909C282.658 10.5909 281.423 10.1136 280.393 9.15909C279.378 8.18939 278.87 7.0303 278.87 5.68182C278.87 4.34848 279.378 3.20454 280.393 2.25C281.423 1.2803 282.658 0.795452 284.097 0.795452C285.537 0.795452 286.764 1.2803 287.779 2.25C288.809 3.20454 289.325 4.34848 289.325 5.68182C289.325 7.0303 288.809 8.18939 287.779 9.15909C286.764 10.1136 285.537 10.5909 284.097 10.5909Z" fill="white"/>
<path d="M270.838 3.45454V50H261.156V3.45454H270.838Z" fill="white"/>
<path d="M230.385 29.8182V50H220.704V15.0909H229.931V21.25H230.34C231.113 19.2197 232.408 17.6136 234.226 16.4318C236.045 15.2348 238.249 14.6364 240.84 14.6364C243.264 14.6364 245.378 15.1667 247.181 16.2273C248.984 17.2879 250.385 18.803 251.385 20.7727C252.385 22.7273 252.885 25.0606 252.885 27.7727V50H243.204V29.5C243.219 27.3636 242.673 25.697 241.567 24.5C240.461 23.2879 238.938 22.6818 236.999 22.6818C235.696 22.6818 234.545 22.9621 233.545 23.5227C232.56 24.0833 231.787 24.9015 231.226 25.9773C230.681 27.0379 230.401 28.3182 230.385 29.8182Z" fill="white"/>
<path d="M212.956 26.7273C212.956 31.803 211.994 36.1212 210.069 39.6818C208.16 43.2424 205.554 45.9621 202.251 47.8409C198.963 49.7045 195.266 50.6364 191.16 50.6364C187.024 50.6364 183.312 49.697 180.024 47.8182C176.736 45.9394 174.137 43.2197 172.228 39.6591C170.319 36.0985 169.365 31.7879 169.365 26.7273C169.365 21.6515 170.319 17.3333 172.228 13.7727C174.137 10.2121 176.736 7.5 180.024 5.63636C183.312 3.75757 187.024 2.81818 191.16 2.81818C195.266 2.81818 198.963 3.75757 202.251 5.63636C205.554 7.5 208.16 10.2121 210.069 13.7727C211.994 17.3333 212.956 21.6515 212.956 26.7273ZM202.978 26.7273C202.978 23.4394 202.486 20.6667 201.501 18.4091C200.531 16.1515 199.16 14.4394 197.387 13.2727C195.615 12.1061 193.539 11.5227 191.16 11.5227C188.781 11.5227 186.706 12.1061 184.933 13.2727C183.16 14.4394 181.781 16.1515 180.797 18.4091C179.827 20.6667 179.342 23.4394 179.342 26.7273C179.342 30.0152 179.827 32.7879 180.797 35.0455C181.781 37.303 183.16 39.0151 184.933 40.1818C186.706 41.3485 188.781 41.9318 191.16 41.9318C193.539 41.9318 195.615 41.3485 197.387 40.1818C199.16 39.0151 200.531 37.303 201.501 35.0455C202.486 32.7879 202.978 30.0152 202.978 26.7273Z" fill="white"/>
<path d="M151.924 50V15.0909H161.605V50H151.924ZM156.787 10.5909C155.348 10.5909 154.113 10.1136 153.083 9.15909C152.068 8.18939 151.56 7.0303 151.56 5.68182C151.56 4.34848 152.068 3.20454 153.083 2.25C154.113 1.2803 155.348 0.795452 156.787 0.795452C158.227 0.795452 159.454 1.2803 160.469 2.25C161.499 3.20454 162.015 4.34848 162.015 5.68182C162.015 7.0303 161.499 8.18939 160.469 9.15909C159.454 10.1136 158.227 10.5909 156.787 10.5909Z" fill="black"/>
<path d="M129.494 50.6818C125.918 50.6818 122.842 49.9242 120.267 48.4091C117.706 46.8788 115.736 44.7576 114.357 42.0455C112.994 39.3333 112.312 36.2121 112.312 32.6818C112.312 29.1061 113.001 25.9697 114.38 23.2727C115.774 20.5606 117.751 18.447 120.312 16.9318C122.873 15.4015 125.918 14.6364 129.448 14.6364C132.494 14.6364 135.161 15.1894 137.448 16.2955C139.736 17.4015 141.547 18.9545 142.88 20.9545C144.214 22.9545 144.948 25.303 145.085 28H135.948C135.691 26.2576 135.009 24.8561 133.903 23.7955C132.812 22.7197 131.38 22.1818 129.607 22.1818C128.107 22.1818 126.797 22.5909 125.676 23.4091C124.57 24.2121 123.706 25.3864 123.085 26.9318C122.464 28.4773 122.153 30.3485 122.153 32.5455C122.153 34.7727 122.456 36.6667 123.062 38.2273C123.683 39.7879 124.554 40.9773 125.676 41.7955C126.797 42.6136 128.107 43.0227 129.607 43.0227C130.714 43.0227 131.706 42.7955 132.585 42.3409C133.479 41.8864 134.214 41.2273 134.789 40.3636C135.38 39.4848 135.767 38.4318 135.948 37.2045H145.085C144.933 39.8712 144.206 42.2197 142.903 44.25C141.615 46.2652 139.835 47.8409 137.562 48.9773C135.289 50.1136 132.6 50.6818 129.494 50.6818ZM127.221 49.8182H131.676L131.312 51.7955C132.873 52.0379 134.145 52.6212 135.13 53.5455C136.13 54.4697 136.638 55.7273 136.653 57.3182C136.668 59.5758 135.623 61.3712 133.517 62.7045C131.411 64.053 128.456 64.7273 124.653 64.7273L124.562 60.4091C126.471 60.4091 127.964 60.1742 129.039 59.7045C130.13 59.25 130.698 58.5379 130.744 57.5682C130.774 56.6439 130.418 55.9394 129.676 55.4545C128.933 54.9697 127.774 54.6288 126.198 54.4318L127.221 49.8182Z" fill="black"/>
<path d="M88.5186 50V15.0909H97.905V21.1818H98.2686C98.905 19.0151 99.9732 17.3788 101.473 16.2727C102.973 15.1515 104.7 14.5909 106.655 14.5909C107.14 14.5909 107.663 14.6212 108.223 14.6818C108.784 14.7424 109.276 14.8258 109.7 14.9318V23.5227C109.246 23.3864 108.617 23.2651 107.814 23.1591C107.011 23.053 106.276 23 105.61 23C104.185 23 102.913 23.3106 101.791 23.9318C100.685 24.5379 99.8065 25.3864 99.155 26.4773C98.5186 27.5682 98.2005 28.8258 98.2005 30.25V50H88.5186Z" fill="black"/>
<path d="M65.5377 50.6818C61.9468 50.6818 58.8559 49.9545 56.265 48.5C53.6892 47.0303 51.7044 44.9545 50.3105 42.2727C48.9165 39.5758 48.2195 36.3864 48.2195 32.7045C48.2195 29.1136 48.9165 25.9621 50.3105 23.25C51.7044 20.5379 53.6665 18.4242 56.1968 16.9091C58.7423 15.3939 61.7271 14.6364 65.1514 14.6364C67.4544 14.6364 69.5983 15.0076 71.5832 15.75C73.5832 16.4773 75.3256 17.5758 76.8105 19.0455C78.3105 20.5152 79.4771 22.3636 80.3105 24.5909C81.1438 26.803 81.5605 29.3939 81.5605 32.3636V35.0227H52.0832V29.0227H72.4468C72.4468 27.6288 72.1438 26.3939 71.5377 25.3182C70.9317 24.2424 70.0908 23.4015 69.015 22.7955C67.9544 22.1742 66.7195 21.8636 65.3105 21.8636C63.8408 21.8636 62.5377 22.2045 61.4014 22.8864C60.2802 23.553 59.4014 24.4545 58.765 25.5909C58.1286 26.7121 57.8029 27.9621 57.7877 29.3409V35.0455C57.7877 36.7727 58.1059 38.2652 58.7423 39.5227C59.3938 40.7803 60.3105 41.75 61.4923 42.4318C62.6741 43.1136 64.0756 43.4545 65.6968 43.4545C66.7726 43.4545 67.7574 43.303 68.6514 43C69.5453 42.697 70.3105 42.2424 70.9468 41.6364C71.5832 41.0303 72.068 40.2879 72.4014 39.4091L81.3559 40C80.9014 42.1515 79.9695 44.0303 78.5605 45.6364C77.1665 47.2273 75.3635 48.4697 73.1514 49.3636C70.9544 50.2424 68.4165 50.6818 65.5377 50.6818Z" fill="black"/>
<path d="M42.1136 19.75H32.1591C31.9773 18.4621 31.6061 17.3182 31.0454 16.3182C30.4848 15.303 29.7651 14.4394 28.8864 13.7273C28.0076 13.0151 26.9924 12.4697 25.8409 12.0909C24.7045 11.7121 23.4697 11.5227 22.1364 11.5227C19.7273 11.5227 17.6288 12.1212 15.8409 13.3182C14.053 14.5 12.6667 16.2273 11.6818 18.5C10.697 20.7576 10.2045 23.5 10.2045 26.7273C10.2045 30.0455 10.697 32.8333 11.6818 35.0909C12.6818 37.3485 14.0757 39.053 15.8636 40.2045C17.6515 41.3561 19.7197 41.9318 22.0682 41.9318C23.3864 41.9318 24.6061 41.7576 25.7273 41.4091C26.8636 41.0606 27.8712 40.553 28.75 39.8864C29.6288 39.2045 30.3561 38.3788 30.9318 37.4091C31.5227 36.4394 31.9318 35.3333 32.1591 34.0909L42.1136 34.1364C41.8561 36.2727 41.2121 38.3333 40.1818 40.3182C39.1667 42.2879 37.7954 44.053 36.0682 45.6136C34.3561 47.1591 32.3106 48.3864 29.9318 49.2955C27.5682 50.1894 24.8939 50.6364 21.9091 50.6364C17.7576 50.6364 14.0454 49.697 10.7727 47.8182C7.51514 45.9394 4.93939 43.2197 3.04545 39.6591C1.16666 36.0985 0.227264 31.7879 0.227264 26.7273C0.227264 21.6515 1.18181 17.3333 3.0909 13.7727C4.99999 10.2121 7.5909 7.5 10.8636 5.63636C14.1364 3.75757 17.8182 2.81818 21.9091 2.81818C24.6061 2.81818 27.1061 3.19697 29.4091 3.95454C31.7273 4.71212 33.7803 5.81818 35.5682 7.27272C37.3561 8.71212 38.8106 10.4773 39.9318 12.5682C41.0682 14.6591 41.7954 17.053 42.1136 19.75ZM19.4773 49.8636H23.9318L23.5682 51.8409C25.1288 52.0833 26.4015 52.6667 27.3864 53.5909C28.3864 54.5152 28.8939 55.7727 28.9091 57.3636C28.9242 59.6212 27.8788 61.4167 25.7727 62.75C23.6667 64.0985 20.7121 64.7727 16.9091 64.7727L16.8182 60.4545C18.7273 60.4545 20.2197 60.2197 21.2954 59.75C22.3864 59.2955 22.9545 58.5833 23 57.6136C23.0303 56.6894 22.6742 55.9848 21.9318 55.5C21.1894 55.0152 20.0303 54.6742 18.4545 54.4773L19.4773 49.8636Z" fill="black"/>
</svg>
